<svg xmlns="http://www.w3.org/2000/svg" fill="#787d90" height="512" width="512"  xmlns:v="https://vecta.io/nano"><path d="M118 299.908c-43.009 0-78 34.99-78 78s34.991 78 78 78 78-34.99 78-78-34.991-78-78-78zm0 20c3.602 0 7.123.347 10.546.979l-67.568 67.567c-.631-3.422-.978-6.943-.978-10.546 0-31.981 26.019-58 58-58zm0 116a58.07 58.07 0 0 1-9.698-.827l33.269-33.268c3.905-3.905 3.905-10.237 0-14.143s-10.237-3.904-14.142 0l-39.693 39.693c-7.601-4.669-14.04-11.044-18.801-18.582l79.938-79.938C165.155 339.126 176 357.269 176 377.908c0 31.982-26.019 58-58 58zm385.867-101.053l-.051-.176-39.243-113.404a10 10 0 0 0-12.72-6.18c-5.219 1.806-7.986 7.501-6.18 12.721l19.352 55.925c-19.774-14.952-44.381-23.833-71.026-23.833-40.783 0-76.797 20.799-98 52.344v-72.476c0-22.646 13.308-43.36 33.903-52.773a10 10 0 0 0 5.843-9.095v-35c0-5.522-4.477-10-10-10H296V85.341c0-15.331 6.947-29.54 19.06-38.985 11.81-9.209 26.825-12.418 41.184-8.809l1.78.474c15.241 4.283 27.53 16.061 32.875 31.506l25.342 73.233a10 10 0 0 0 12.72 6.18c5.219-1.806 7.986-7.501 6.18-12.721l-25.342-73.232c-7.486-21.635-24.818-38.165-46.374-44.223l-2.294-.61c-20.388-5.124-41.663-.595-58.368 12.431C285.754 43.845 276 63.804 276 85.341v47.567h-40V85.341c0-21.537-9.755-41.496-26.763-54.757-16.704-13.024-37.977-17.556-58.378-12.428l-2.293.61c-21.546 6.055-38.879 22.585-46.365 44.219L8.184 334.68c-.02.058-.032.117-.051.176C2.885 348.2 0 362.723 0 377.908c0 65.065 52.935 118 118 118s118-52.935 118-118V250.035h40v127.873c0 65.065 52.935 118 118 118s118-52.935 118-118c0-15.185-2.885-29.708-8.133-43.053zM118 475.908c-54.038 0-98-43.963-98-98s43.962-98 98-98 98 43.963 98 98-43.962 98-98 98zm0-216c-26.645 0-51.252 8.881-71.026 23.833l74.127-214.216c5.344-15.444 17.634-27.222 32.865-31.502l1.779-.474c14.368-3.615 29.383-.402 41.194 8.806C209.053 55.801 216 70.01 216 85.341v47.567h-29.746c-5.523 0-10 4.478-10 10v35a10 10 0 0 0 5.843 9.095C202.692 196.416 216 217.131 216 239.777v72.476c-21.203-31.546-57.217-52.345-98-52.345zm117.386-29.873c-3.086-24.391-17.618-46.122-39.132-58.247v-18.88h119.492v18.88c-21.515 12.125-36.046 33.856-39.132 58.247zM394 475.908c-54.038 0-98-43.963-98-98s43.962-98 98-98 98 43.963 98 98-43.962 98-98 98zm0-176c-43.009 0-78 34.99-78 78s34.991 78 78 78 78-34.99 78-78-34.991-78-78-78zm0 20c3.603 0 7.124.347 10.546.979l-67.568 67.567c-.632-3.422-.978-6.943-.978-10.546 0-31.981 26.019-58 58-58zm0 116a58.07 58.07 0 0 1-9.698-.827l33.269-33.268c3.905-3.905 3.905-10.237 0-14.143s-10.237-3.904-14.142 0l-39.693 39.693c-7.601-4.669-14.04-11.044-18.801-18.582l79.938-79.938C441.155 339.126 452 357.269 452 377.908c0 31.982-26.019 58-58 58zm36.41-253.89c0 2.63 1.07 5.21 2.93 7.07s4.44 2.93 7.07 2.93 5.21-1.069 7.07-2.93a10.08 10.08 0 0 0 2.93-7.07c0-2.63-1.07-5.21-2.93-7.069a10.08 10.08 0 0 0-7.07-2.931c-2.63 0-5.21 1.07-7.07 2.931s-2.93 4.439-2.93 7.069z"/></svg>