<svg xmlns="http://www.w3.org/2000/svg" fill="#787d90" height="512" width="512"  xmlns:v="https://vecta.io/nano"><path d="M448 0H116v52H64v376.485L147.515 512H396v-52h52zM144 491.515L84.485 432H144zM384 500H156v-80H76V64h308zm52-52h-40V52H128V12h308zM118 100h160v12H118zm0 32h128v12H118zm38 48h-44v44h44zm-12 32h-20v-20h20zm38 0h128v12H182zm0-32h160v12H182zm-26 80h-44v44h44zm-12 32h-20v-20h20zm38 0h128v12H182zm0-32h160v12H182zm-26 80h-44v44h44zm-12 32h-20v-20h20zm38 0h128v12H182zm0-32h160v12H182zm0 112h128v12H182zm0-32h160v12H182z"/></svg>